<?xml version="1.0" encoding="utf-8"?>
<!-- Generator: Adobe Illustrator 22.1.0, SVG Export Plug-In . SVG Version: 6.00 Build 0)  -->
<svg version="1.1" id="Layer_1" xmlns="http://www.w3.org/2000/svg" xmlns:xlink="http://www.w3.org/1999/xlink" x="0px" y="0px"
	 viewBox="0 0 12 12" style="enable-background:new 0 0 12 12;" xml:space="preserve">
<style type="text/css">
	.st0{fill:url(#SVGID_1_);}
	.st1{fill:#FFFFFF;}
	.st2{opacity:0.5;fill:#FFFFFF;}
</style>
<g>
	<linearGradient id="SVGID_1_" gradientUnits="userSpaceOnUse" x1="0" y1="6" x2="12" y2="6">
		<stop  offset="0" style="stop-color:#1072BA"/>
		<stop  offset="1" style="stop-color:#2E368F"/>
	</linearGradient>
	<circle class="st0" cx="6" cy="6" r="6"/>
	<g>
		<g>
			<path class="st1" d="M6.4,3.2c0.4,0.1,0.8,0.2,1,0.5C7.6,4,7.7,4.5,7.7,5H7c0-0.4-0.1-0.6-0.3-0.9C6.6,3.9,6.4,3.8,6.1,3.8
				C5.8,3.8,5.5,3.9,5.4,4C5.2,4.2,5.1,4.4,5.1,4.7c0,0.3,0.1,0.5,0.3,0.6c0.2,0.2,0.4,0.3,0.8,0.4C6.6,5.9,6.9,6,7.1,6.2
				c0.2,0.2,0.4,0.3,0.5,0.5c0.1,0.2,0.2,0.4,0.2,0.7c0,0.4-0.1,0.8-0.4,1C7.1,8.7,6.8,8.9,6.3,8.9H5.7c-0.5,0-0.8-0.2-1.1-0.5
				C4.4,8.1,4.2,7.7,4.2,7.2h0.7C4.9,7.6,5,7.8,5.2,8C5.4,8.2,5.7,8.3,6,8.3c0.3,0,0.6-0.1,0.8-0.2C7,7.9,7.1,7.7,7.1,7.4
				C7.1,7.2,7,7,6.8,6.8C6.7,6.6,6.4,6.5,6,6.4C5.5,6.2,5.1,6,4.8,5.7c-0.2-0.3-0.4-0.6-0.4-1c0-0.4,0.1-0.8,0.4-1s0.6-0.4,1-0.5"/>
		</g>
		<path class="st2" d="M5.8,3.2V2.4h0.6v0.8"/>
		<path class="st2" d="M6.3,8.9v0.7H5.7V8.9"/>
	</g>
</g>
</svg>
