<?xml version="1.0" encoding="utf-8"?>
<!-- Generator: Adobe Illustrator 22.1.0, SVG Export Plug-In . SVG Version: 6.00 Build 0)  -->
<svg version="1.1" id="Layer_1" xmlns="http://www.w3.org/2000/svg" xmlns:xlink="http://www.w3.org/1999/xlink" x="0px" y="0px"
	 viewBox="0 0 13.7 13.5" style="enable-background:new 0 0 13.7 13.5;" xml:space="preserve">
<style type="text/css">
	.st0{fill:url(#SVGID_1_);}
	.st1{fill:#FFFFFF;}
	.st2{opacity:0.5;fill:#FFFFFF;}
	.st3{fill:#EB2227;}
</style>
<g>
	<g>
		<linearGradient id="SVGID_1_" gradientUnits="userSpaceOnUse" x1="0" y1="7.5323" x2="12" y2="7.5323">
			<stop  offset="0" style="stop-color:#1072BA"/>
			<stop  offset="1" style="stop-color:#2E368F"/>
		</linearGradient>
		<circle class="st0" cx="6" cy="7.5" r="6"/>
		<g>
			<g>
				<path class="st1" d="M6.4,4.7c0.4,0.1,0.8,0.2,1,0.5C7.6,5.6,7.7,6,7.7,6.5H7c0-0.4-0.1-0.6-0.3-0.9C6.6,5.4,6.4,5.3,6.1,5.3
					c-0.3,0-0.5,0.1-0.7,0.2C5.2,5.7,5.1,6,5.1,6.2c0,0.3,0.1,0.5,0.3,0.6C5.6,7,5.8,7.1,6.2,7.3c0.4,0.1,0.7,0.3,0.9,0.4
					C7.4,7.8,7.5,8,7.6,8.2c0.1,0.2,0.2,0.4,0.2,0.7c0,0.4-0.1,0.8-0.4,1c-0.3,0.3-0.6,0.4-1.1,0.5H5.7c-0.5,0-0.8-0.2-1.1-0.5
					C4.4,9.6,4.2,9.2,4.2,8.7h0.7c0,0.4,0.1,0.6,0.3,0.8S5.7,9.8,6,9.8c0.3,0,0.6-0.1,0.8-0.2C7,9.4,7.1,9.2,7.1,8.9
					c0-0.2-0.1-0.4-0.2-0.6C6.7,8.2,6.4,8,6,7.9C5.5,7.7,5.1,7.5,4.8,7.3C4.6,7,4.4,6.7,4.4,6.2c0-0.4,0.1-0.8,0.4-1
					c0.2-0.3,0.6-0.4,1-0.5"/>
			</g>
			<path class="st2" d="M5.8,4.7V3.9h0.6v0.8"/>
			<path class="st2" d="M6.3,10.4v0.7H5.7v-0.7"/>
		</g>
	</g>
	<g>
		<circle class="st3" cx="10.8" cy="2.9" r="2.9"/>
		<path class="st1" d="M10.8,1.9c0.1,0,0.2,0.1,0.3,0.2l1.3,1.4c0.1,0.1,0.1,0.2,0,0.2c-0.1,0.1-0.2,0.1-0.3,0l-1.3-1.4L9.5,3.8
			c-0.1,0.1-0.2,0.1-0.2,0c-0.1-0.1-0.1-0.2,0-0.3l1.3-1.4C10.6,2,10.7,1.9,10.8,1.9z"/>
	</g>
</g>
</svg>
