<?xml version="1.0" encoding="utf-8"?>
<!-- Generator: Adobe Illustrator 21.1.0, SVG Export Plug-In . SVG Version: 6.00 Build 0)  -->
<svg version="1.1" id="Layer_1" xmlns="http://www.w3.org/2000/svg" xmlns:xlink="http://www.w3.org/1999/xlink" x="0px" y="0px"
	 viewBox="0 0 20 20" style="enable-background:new 0 0 20 20;" xml:space="preserve">
<style type="text/css">
	.st0{stroke:#221F1F;stroke-width:0.5;stroke-miterlimit:10;}
	.st1{fill:#221F1F;stroke:#221F1F;stroke-width:0.5;stroke-miterlimit:10;}
</style>
<g>
	<path class="st0" d="M10,18c2.2,0,4.2-0.8,5.7-2.3S18,12.2,18,10s-0.8-4.2-2.3-5.7S12.2,2,10,2S5.8,2.8,4.3,4.3S2,7.8,2,10
		s0.8,4.2,2.3,5.7S7.8,18,10,18 M4.7,4.7C6.1,3.3,8,2.5,10,2.5s3.9,0.8,5.3,2.2c1.4,1.4,2.2,3.3,2.2,5.3s-0.8,3.9-2.2,5.3
		c-1.4,1.4-3.3,2.2-5.3,2.2s-3.9-0.8-5.3-2.2c-1.4-1.4-2.2-3.3-2.2-5.3C2.5,8,3.3,6.1,4.7,4.7"/>
	<path class="st1" d="M6.9,12.6L9.5,10L6.9,7.4C6.8,7.3,6.8,7,6.9,6.9c0.2-0.1,0.4-0.1,0.6,0L10,9.5L12.6,7C12.7,6.8,13,6.8,13,7
		c0.2,0.2,0.2,0.4,0,0.5L10.5,10l2.6,2.6c0.2,0.2,0.2,0.4,0,0.5c0,0.2-0.1,0.2-0.2,0.2c-0.1,0-0.2,0-0.2-0.1L10,10.5L7.4,13
		c-0.1,0.2-0.2,0.2-0.2,0.2S7,13.2,7,13.1C6.8,13,6.8,12.7,6.9,12.6"/>
</g>
<g>
	<path class="st0" d="M368.2,212.2c2.2,0,4.2-0.8,5.7-2.3c1.5-1.5,2.3-3.5,2.3-5.7s-0.8-4.2-2.3-5.7c-1.5-1.5-3.5-2.3-5.7-2.3
		s-4.2,0.8-5.7,2.3c-1.5,1.5-2.3,3.5-2.3,5.7s0.8,4.2,2.3,5.7C364.1,211.4,366.1,212.2,368.2,212.2 M363,199
		c1.4-1.4,3.3-2.2,5.3-2.2s3.9,0.8,5.3,2.2c1.4,1.4,2.2,3.3,2.2,5.3s-0.8,3.9-2.2,5.3c-1.4,1.4-3.3,2.2-5.3,2.2s-3.9-0.8-5.3-2.2
		c-1.4-1.4-2.2-3.3-2.2-5.3C360.7,202.2,361.5,200.3,363,199"/>
	<path class="st1" d="M365.1,206.8l2.6-2.6l-2.6-2.6c-0.1-0.2-0.1-0.4,0-0.6c0.2-0.1,0.4-0.1,0.6,0l2.6,2.6l2.6-2.6
		c0.2-0.2,0.4-0.2,0.5,0c0.2,0.2,0.2,0.4,0,0.5l-2.6,2.6l2.6,2.6c0.2,0.2,0.2,0.4,0,0.5c0,0.2-0.1,0.2-0.2,0.2c-0.1,0-0.2,0-0.2-0.1
		l-2.6-2.6l-2.6,2.6c-0.1,0.2-0.2,0.2-0.2,0.2c-0.1,0-0.2,0-0.2-0.1C365,207.2,365,207,365.1,206.8"/>
</g>
</svg>
