<svg id="Layer_1" data-name="Layer 1" xmlns="http://www.w3.org/2000/svg" viewBox="0 0 20 20"><defs><style>.cls-1{fill:#add6ff;}.cls-2{fill:#ff580e;}</style></defs><title>_</title><path class="cls-1" d="M6.58,13.68a5.24,5.24,0,0,1,1.66-1,0.17,0.17,0,0,0,0-.3A3.1,3.1,0,0,1,6.93,9.84,3,3,0,0,1,7.4,8.23C7.26,8.16,7.13,8.08,7,8a0.19,0.19,0,0,1,0-.3A3.07,3.07,0,1,0,2.2,5.17,3.1,3.1,0,0,0,3.56,7.72a0.17,0.17,0,0,1,0,.3A5.29,5.29,0,0,0,0,12.86,0.18,0.18,0,0,0,.12,13a18.75,18.75,0,0,0,5.14.7C5.7,13.73,6.15,13.71,6.58,13.68Z"/><path class="cls-1" d="M16.48,8a0.19,0.19,0,0,1,0-.3,3.07,3.07,0,1,0-3.42,0A0.17,0.17,0,0,1,13,8c-0.15.05-.28,0.13-0.41,0.2a3,3,0,0,1,.48,1.62,3.1,3.1,0,0,1-1.36,2.56,0.19,0.19,0,0,0,0,.3,5.33,5.33,0,0,1,1.64,1c0.46,0,.92.06,1.39,0.06a18.62,18.62,0,0,0,5.14-.7A0.18,0.18,0,0,0,20,12.86,5.31,5.31,0,0,0,16.48,8Z"/><path class="cls-2" d="M10,17.91a18.44,18.44,0,0,1-4.74-.61,4.75,4.75,0,0,1,3.17-4.12,0.68,0.68,0,0,0,.45-0.57A0.66,0.66,0,0,0,8.54,12a2.57,2.57,0,1,1,2.89,0,0.65,0.65,0,0,0-.29.52,0.71,0.71,0,0,0,.28.6l0.06,0,0.07,0a4.79,4.79,0,0,1,3.17,4.12A18.15,18.15,0,0,1,10,17.91Z"/></svg>