<?xml version="1.0" standalone="no"?>
<!DOCTYPE svg PUBLIC "-//W3C//DTD SVG 20010904//EN"
 "http://www.w3.org/TR/2001/REC-SVG-20010904/DTD/svg10.dtd">
<svg version="1.0" xmlns="http://www.w3.org/2000/svg"
 width="256.000000pt" height="256.000000pt" viewBox="0 0 256.000000 256.000000"
 preserveAspectRatio="xMidYMid meet">

<g transform="translate(0.000000,256.000000) scale(0.100000,-0.100000)"
fill="#000000" stroke="none">
<path d="M0 1280 l0 -1280 1280 0 1280 0 0 1280 0 1280 -1280 0 -1280 0 0
-1280z m1069 1166 c-11 -9 -69 -14 -69 -6 0 6 17 10 37 10 20 0 34 -2 32 -4z
m401 -5 c-38 -6 -78 -33 -99 -66 -11 -19 -11 -18 -5 5 12 48 43 70 93 69 45
-2 45 -2 11 -8z m-525 -21 c-27 -11 -54 -20 -59 -20 -6 0 -23 -12 -38 -27 -20
-19 -28 -22 -28 -11 0 24 31 45 90 61 78 21 94 20 35 -3z m199 -117 l61 -113
50 0 50 0 63 115 c35 63 66 115 69 115 10 0 129 -31 176 -46 l47 -16 0 -132 0
-133 43 -23 42 -22 108 66 108 67 27 -20 c26 -18 86 -80 126 -128 17 -21 16
-23 -49 -131 l-67 -111 23 -42 24 -43 132 3 131 3 17 -59 c10 -32 23 -83 30
-114 l12 -57 -113 -63 -114 -64 0 -52 0 -52 78 -43 c42 -23 91 -50 107 -59 26
-14 30 -22 29 -55 -1 -21 -12 -71 -25 -111 l-23 -73 -130 0 -131 0 -28 -46
c-18 -30 -25 -50 -19 -58 5 -6 23 -36 40 -68 l32 -56 -36 -21 c-19 -12 -37
-21 -38 -21 -2 0 -45 -24 -96 -54 l-92 -54 -33 19 -33 20 -46 -28 c-30 -18
-46 -35 -46 -48 0 -43 -13 -63 -53 -84 -23 -12 -55 -31 -72 -41 -16 -11 -37
-23 -45 -27 -8 -3 -32 -17 -52 -30 l-38 -23 -23 37 c-13 21 -31 50 -41 66 -15
24 -22 27 -71 27 l-54 0 -61 -110 c-34 -61 -67 -110 -74 -110 -19 0 -179 41
-197 51 -14 7 -16 26 -12 136 l4 128 -43 23 c-24 12 -46 22 -50 22 -4 0 -55
-29 -114 -64 l-107 -65 -51 44 c-28 24 -60 54 -70 67 -10 13 -25 30 -33 39
-12 14 -5 30 53 125 l66 109 -21 42 -21 43 -134 0 -134 0 -16 47 c-15 47 -46
166 -46 176 0 3 52 34 115 69 l115 63 0 50 0 50 -115 63 c-63 35 -115 66 -115
69 0 10 31 129 47 176 l15 49 132 -4 132 -3 23 44 23 44 -67 109 -66 109 20
27 c19 27 100 106 133 131 14 10 33 2 127 -54 l111 -67 41 24 41 25 -1 130 -2
131 63 20 c82 27 140 41 157 39 8 -1 42 -53 75 -114z m187 -10 c-12 -20 -14
-14 -5 12 4 9 9 14 11 11 3 -2 0 -13 -6 -23z m-791 -93 c0 -5 -6 -10 -12 -10
-7 0 -48 -35 -90 -77 -44 -44 -78 -71 -78 -62 0 20 143 159 164 159 9 0 16 -4
16 -10z m-237 -459 c-56 -3 -103 -8 -105 -11 -3 -3 -14 -18 -26 -34 -24 -32
-27 -30 -12 9 14 36 41 44 150 43 l95 -2 -102 -5z m-124 -553 c-2 -2 -17 -14
-33 -28 -27 -23 -28 -23 -17 -3 10 20 25 30 45 32 5 1 7 0 5 -1z"/>
<path d="M1122 1681 c-111 -41 -204 -136 -244 -248 -29 -84 -22 -216 16 -295
58 -121 167 -204 300 -229 185 -34 387 92 441 274 12 41 13 42 59 45 l46 3 0
74 0 74 -46 3 c-45 3 -46 3 -63 55 -34 100 -108 181 -211 230 -75 37 -219 43
-298 14z"/>
</g>
</svg>
