<?xml version="1.0" encoding="utf-8"?>
<!-- Generator: Adobe Illustrator 21.1.0, SVG Export Plug-In . SVG Version: 6.00 Build 0)  -->
<svg version="1.1" id="Layer_1" xmlns="http://www.w3.org/2000/svg" xmlns:xlink="http://www.w3.org/1999/xlink" x="0px" y="0px"
	 viewBox="0 0 12 12" style="enable-background:new 0 0 12 12;" xml:space="preserve">
<style type="text/css">
	.st0{fill:#BBBBBB;}
	.st1{fill:#ECF0F1;}
	.st2{fill:#FFD300;}
	.st3{fill:#FCBC06;}
	.st4{fill:#CC9817;}
</style>
<g>
	<rect y="4.2" class="st0" width="12" height="7.8"/>
	<path class="st1" d="M7.8,6.9v0.9c0,0.3-0.3,0.5-0.6,0.5H4.8c-0.4,0-0.6-0.2-0.6-0.5V6.9H3.2v0.9c0,0.8,0.7,1.4,1.4,1.4
		c0,0,0,0,0,0h2.6c0.8,0,1.4-0.6,1.5-1.3c0,0,0,0,0,0V6.9H7.8z"/>
	<polygon class="st2" points="11.5,2.8 0.5,2.8 0,3.7 12,3.7 	"/>
	<polygon class="st3" points="10.6,1.4 1.4,1.4 0.9,2.3 11.1,2.3 	"/>
	<polygon class="st4" points="9.7,0 2.3,0 1.8,0.9 10.2,0.9 	"/>
</g>
</svg>
