<?xml version="1.0" encoding="utf-8"?>
<!-- Generator: Adobe Illustrator 21.1.0, SVG Export Plug-In . SVG Version: 6.00 Build 0)  -->
<svg version="1.1" id="Layer_1" xmlns="http://www.w3.org/2000/svg" xmlns:xlink="http://www.w3.org/1999/xlink" x="0px" y="0px"
	 viewBox="0 0 20 20" style="enable-background:new 0 0 20 20;" xml:space="preserve">
<style type="text/css">
	.st0{fill:#FFFFFF;}
</style>
<g>
	<path class="st0" d="M0.2,8C0,7.8-0.1,7.4,0.1,7.2c0.1-0.1,0.3-0.2,0.5-0.1h4.2C5.1,7,5.4,7.2,5.4,7.5c0,0.2,0,0.3-0.1,0.5
		l-1.9,3.1c-0.1,0.3-0.5,0.5-0.8,0.3c-0.1-0.1-0.3-0.2-0.3-0.3L0.2,8z"/>
	<path class="st0" d="M0.2,8C0,7.8-0.1,7.4,0.1,7.2c0.1-0.1,0.3-0.2,0.5-0.1h4.2C5.1,7,5.4,7.2,5.4,7.5c0,0.2,0,0.3-0.1,0.5
		l-1.9,3.1c-0.1,0.3-0.5,0.5-0.8,0.3c-0.1-0.1-0.3-0.2-0.3-0.3L0.2,8z"/>
	<path class="st0" d="M19.8,12c0.2,0.2,0.2,0.5,0,0.7c-0.1,0.1-0.3,0.2-0.5,0.2H15c-0.3,0.1-0.6-0.1-0.6-0.4c0-0.2,0-0.4,0.2-0.5
		l2.1-3.2c0.2-0.3,0.5-0.4,0.8-0.3c0.1,0.1,0.2,0.2,0.3,0.3L19.8,12z"/>
	<path class="st0" d="M19.8,12c0.2,0.2,0.2,0.5,0,0.7c-0.1,0.1-0.3,0.2-0.5,0.2H15c-0.3,0.1-0.6-0.1-0.6-0.4c0-0.2,0-0.4,0.2-0.5
		l2.1-3.2c0.2-0.3,0.5-0.4,0.8-0.3c0.1,0.1,0.2,0.2,0.3,0.3L19.8,12z"/>
	<path class="st0" d="M16.4,6.6c-1.7-3.5-6-5-9.5-3.3C5.2,4.1,3.9,5.5,3.3,7.2h2.1l-2.7,4.4L0.1,7.2h2.1C3.3,3.8,6.4,1.5,10,1.6
		c3.2-0.1,6.1,1.8,7.4,4.7l0,0c0.1,0.2,0.1,0.5,0,0.7C17.3,7,17.2,7.1,17,7.1C16.7,7.1,16.5,6.9,16.4,6.6z"/>
	<path class="st0" d="M3.5,13.4c1.7,3.5,6,5,9.5,3.3c1.6-0.8,2.9-2.2,3.6-3.9h-2.1l2.6-4.4l2.6,4.4h-2.1c-1.1,3.3-4.2,5.6-7.7,5.6
		c-3.2,0.1-6.1-1.8-7.4-4.7l0,0c-0.1-0.2-0.1-0.5,0-0.7C2.7,13,2.8,12.9,3,12.9C3.2,13,3.4,13.1,3.5,13.4z"/>
</g>
</svg>
