<?xml version="1.0" encoding="utf-8"?>
<!-- Generator: Adobe Illustrator 21.1.0, SVG Export Plug-In . SVG Version: 6.00 Build 0)  -->
<svg version="1.1" id="Layer_1" xmlns="http://www.w3.org/2000/svg" xmlns:xlink="http://www.w3.org/1999/xlink" x="0px" y="0px"
	 viewBox="0 0 12 12" style="enable-background:new 0 0 12 12;" xml:space="preserve">
<style type="text/css">
	.st0{fill:#222222;}
</style>
<g>
	<path class="st0" d="M6,0C2.7,0,0,2.7,0,6s2.7,6,6,6s6-2.7,6-6S9.3,0,6,0z M6,10.9c-2.7,0-4.9-2.2-4.9-4.9S3.3,1.1,6,1.1
		s4.9,2.2,4.9,4.9l0,0C10.9,8.7,8.7,10.9,6,10.9z"/>
	<path class="st0" d="M8.2,6.9l-2-1.1V2.2C6.2,2,6,1.7,5.7,1.7S5.3,2,5.3,2.2v3.9c0,0.1,0,0.1,0,0.2c0.1,0.1,0.1,0.2,0.2,0.3
		l2.2,1.3c0.2,0.1,0.5,0.1,0.7-0.2S8.4,7.1,8.2,6.9z"/>
</g>
</svg>
